<svg width="24" height="24" viewBox="0 0 24 24" fill="none" xmlns="http://www.w3.org/2000/svg">
<path d="M15.5 8C19.0899 8 22 10.9101 22 14.5C22 18.0899 19.0899 21 15.5 21C12.7682 21 10.4314 19.3143 9.46973 16.9268C9.16764 16.1768 9 15.3581 9 14.5C9 11.1504 11.5336 8.3922 14.7891 8.03809C15.0225 8.01261 15.2598 8 15.5 8ZM8.5 4C10.8592 4 12.9229 5.25782 14.0615 7.13867C10.6076 7.80967 8 10.8499 8 14.5C8 15.3759 8.15077 16.2166 8.42676 16.998C4.87066 16.9588 2 14.0654 2 10.5C2 6.91015 4.91015 4 8.5 4Z" fill="white"/>
</svg>
