<svg width="26" height="26" viewBox="0 0 26 26" fill="none" xmlns="http://www.w3.org/2000/svg">
<path d="M16.3496 2.5625L16.3838 2.58691H16.4258L20.5449 2.61523L21.8447 6.52441L21.8584 6.56445L21.8926 6.58887L25.207 9.03223L23.9619 12.96L23.9492 13L23.9619 13.04L25.207 16.9668L21.8926 19.4111L21.8584 19.4355L21.8447 19.4756L20.5449 23.3838L16.4258 23.4131H16.3838L16.3496 23.4375L13 25.8359L9.65039 23.4375L9.61621 23.4131H9.57422L5.4541 23.3838L4.15527 19.4756L4.1416 19.4355L4.10742 19.4111L0.791992 16.9668L2.03809 13.04L2.05078 13L2.03809 12.96L0.791992 9.03223L4.10742 6.58887L4.1416 6.56445L4.15527 6.52441L5.4541 2.61523L9.57422 2.58691H9.61621L9.65039 2.5625L13 0.163086L16.3496 2.5625Z" fill="#111111" stroke="#4A4A4A" stroke-width="0.266406"/>
<path d="M17.3335 9.87988L11.1827 16.029L8.32031 13.169" stroke="white" stroke-width="2.66406" stroke-linecap="round" stroke-linejoin="round"/>
</svg>
